PathFileType	4	(X/Y/Z)	Patient4_TMGait_0pt6_02_right_17.trc.trc
DataRate	CameraRate	NumFrames	NumMarkers	Units	OrigDataRate	OrigDataStartFrame	OrigNumFrames
80.924855491329	80.924855491329	4	33	mm	80.924855491329	1	       141
Frame#	Time	Sacral			L.Shoulder			Chest			R.Shoulder			Neck			R.ASIS			L.ASIS			R.Thigh.Superior			R.Thigh.Lateral			R.Thigh.Inferior			R.Patella			L.Thigh.Superior			L.Thigh.Lateral			L.Thigh.Inferior			L.Patella			L.Shank.Superior			L.Shank.Lateral			L.Shank.Inferior			R.Shank.Superior			R.Shank.Lateral			R.Shank.Inferior			R.Heel			R.Midfoot.Superior			R.Midfoot.Lateral			R.Toe			L.Heel			L.Midfoot.Lateral			L.Midfoot.Superior			L.Toe			L.Elbow			L.Wrist			R.Elbow			R.Wrist			
		X1	Y1	Z1	X2	Y2	Z2	X3	Y3	Z3	X4	Y4	Z4	X5	Y5	Z5	X6	Y6	Z6	X7	Y7	Z7	X8	Y8	Z8	X9	Y9	Z9	X10	Y10	Z10	X11	Y11	Z11	X12	Y12	Z12	X13	Y13	Z13	X14	Y14	Z14	X15	Y15	Z15	X16	Y16	Z16	X17	Y17	Z17	X18	Y18	Z18	X19	Y19	Z19	X20	Y20	Z20	X21	Y21	Z21	X22	Y22	Z22	X23	Y23	Z23	X24	Y24	Z24	X25	Y25	Z25	X26	Y26	Z26	X27	Y27	Z27	X28	Y28	Z28	X29	Y29	Z29	X30	Y30	Z30	X31	Y31	Z31	X32	Y32	Z32	X33	Y33	Z33	

1	20.280000000000	824.599407069495	1012.929959379022	428.170194567277	1015.881428639044	1434.442025385788	238.670046264640	1113.032677521983	1367.622880503211	403.596970884783	1026.259417500681	1448.757073924352	572.163556258972	1010.230332816889	1499.337456020637	388.367046332681	1049.344857832555	952.641977621770	548.950026653267	1042.718555607574	964.163267005886	275.823645153129	1144.923275637636	795.106210615248	510.424036954301	1120.852497143492	671.310317429967	583.057979594607	1208.724593901122	640.932447462336	497.494110987702	1240.119078114916	528.572576991013	517.369048690362	1088.134972887502	752.227425526297	308.310346783623	998.076290745088	639.029233703321	249.092257244792	1078.009350961190	560.146314288247	316.267975949057	1074.909594347643	490.414676313358	327.423814056193	1049.949047202595	419.524775976656	318.830892902715	961.900094828192	303.912771255391	268.498879381392	1013.360058733684	194.578474466784	342.023969396520	1170.806600609676	447.535223656744	527.127047717471	1056.329397852652	395.767249197623	591.858024928748	1049.060205272402	286.880390594059	542.313747485945	853.505079144532	203.828979499306	520.978347191524	1029.989993715038	167.536765645942	559.147257492635	921.669975909817	155.398372997297	595.232179069989	1106.951180314833	63.171881421603	587.020905701492	884.949263499711	38.764483126703	386.704366182070	957.808960198221	35.366078200031	304.918073021953	1041.178562289009	96.666146073540	330.821221522407	1169.528524313559	44.667925637608	300.797778350017	1011.792387356194	1079.429463923308	118.286812537649	1159.220213254277	862.589793908594	114.572081471484	980.612432856517	1103.447921127477	696.193085009063	1085.681569028149	862.689658344922	686.290171389518	
2	20.292357142857	823.780738330454	1012.696443854924	426.962132761976	1017.236773485528	1434.647769085669	239.067928481819	1112.771574120643	1367.263396433345	404.667046008039	1024.602466825760	1448.022527425554	572.561355951945	1010.405814574725	1499.278672372499	388.870548286901	1047.778127983922	953.050097408549	549.338839801694	1043.455647283195	964.367657677335	275.769337194074	1144.618942016406	797.016206873207	510.923875521762	1121.524666000459	673.041496536583	583.511423808775	1209.221546090626	643.292445340340	497.686905627921	1242.520545768027	532.832073870913	517.806090502721	1086.807286117183	751.305599995290	309.255233280110	996.113343631839	638.644311099996	249.183872798575	1074.569359178398	559.113686423939	317.111904562253	1070.908462750313	489.408734250124	328.200072793040	1045.409508014730	418.595941222710	319.417930715035	956.636546850450	303.755740486135	268.703324029374	1006.357136777873	193.954297887360	342.543414529094	1177.138205560028	449.890329658353	528.065396859426	1066.418302815838	392.412435863332	593.336561803192	1065.047868801195	283.530491326007	543.916416736278	874.933087744742	190.697700549886	523.286197017238	1052.532368619480	163.271940037787	560.846988659092	945.480646024416	145.753533378199	597.312864725243	1134.439234644605	63.275734053532	588.321750018642	877.095848803158	38.639411222025	386.742520482892	949.947734788006	35.348886511793	304.924296936869	1033.365935590238	96.609662610095	331.005420351780	1161.691415994238	44.589959583660	300.848592847777	1016.559235879751	1080.553106484128	116.942619290604	1172.414807765100	870.488171169931	114.828245073122	972.220230104325	1104.232615347091	696.987346735016	1060.596706629914	859.075494680006	694.612838701419	
3	20.304714285714	822.978617089145	1012.492737972523	425.765749261024	1018.596915503317	1434.836033946426	239.479079950198	1112.542673857033	1366.901010551778	405.739926655608	1023.006108466172	1447.308681253639	572.968673729164	1010.611416565178	1499.212161108962	389.382402527812	1046.227654444286	953.424211124905	549.736835179131	1044.100647862121	964.486926073643	275.760850100632	1144.244005072130	798.802600524799	511.454090438433	1122.015156710076	674.652991726792	584.021366697184	1209.558356800234	645.481424280842	497.983556574674	1244.708832607702	536.942537861528	518.324920799165	1085.467459684956	750.382708867938	310.210790966173	994.140181156657	638.269198053516	249.279012089583	1071.124542698867	558.091637699475	317.943134881257	1066.893267972423	488.415658578717	328.967045106209	1040.870824601616	417.681644625250	319.995655089585	951.391913095121	303.596666227200	268.902764615133	999.422491975502	193.344391183663	343.049375524145	1183.276254951418	452.170168040070	529.036047499981	1076.439430880099	389.010648078017	594.877803572122	1080.957319081819	280.224410699223	545.523697257636	896.435374705768	177.673711941691	525.623277973849	1075.055151355065	159.110867790504	562.503603097202	969.349349172910	136.226202765702	599.370859059754	1161.856166391575	63.529833575421	589.506465469727	869.317911692460	38.520687390014	386.774117255452	942.161549352981	35.330291305208	304.930733350298	1025.625704366647	96.552644880169	331.186661895414	1153.928373979679	44.512379691264	300.898422336948	1021.198860540280	1081.644237906850	115.646715253147	1185.378679166577	878.397896945621	115.153360623681	963.874657424527	1105.092342241002	697.815222940830	1035.969944729588	855.836094161359	702.712921040904	
4	20.317071428571	822.220406112897	1012.340375210022	424.605937117790	1019.974535013969	1434.987959603042	239.925321682041	1112.383611112246	1366.528193231446	406.826352644874	1021.538565967239	1446.634036644346	573.402965096672	1010.882826325660	1499.127820475976	389.917628746600	1044.719881549127	953.731201063827	550.166502436476	1044.604573848802	964.465205621144	275.847141177246	1143.719914385024	800.321876005123	512.069385609641	1122.130824197593	676.013795704564	584.663412603271	1209.555071734614	647.314175794238	498.493842168954	1246.440752003916	540.751117717426	519.007215656804	1084.096613429056	749.451079077751	311.192794782998	992.127886561359	637.911273421828	249.384907420175	1067.643437397832	557.084091159311	318.755105656909	1062.820932514728	487.445431328343	329.718190617263	1036.302812363835	416.795402260419	320.558414824169	946.150315395464	303.437433023577	269.094571514197	992.580557570700	192.762683388693	343.529600760891	1189.008301460578	454.295738635666	530.086317492371	1086.301033976445	385.520415732087	596.537087910524	1096.695871971499	277.028616594548	547.144706758540	918.093953631226	164.899662380547	527.987280021750	1097.530188694250	155.194980896457	564.085484435055	993.326212428914	126.966925198981	601.368004252704	1189.112587244589	64.129716398894	590.489411375398	861.644294995868	38.417040056190	386.794246074158	934.479308699399	35.311024250139	304.937545633866	1017.986760044008	96.494528487760	331.361066150493	1146.267188629793	44.431599086578	300.946855494233	1025.602262010183	1082.667944517741	114.463932398988	1197.902653444194	886.363690286357	115.637086213560	955.606965252829	1106.122641787008	698.712553677538	1012.210380937862	853.321351139502	710.367946822739	
